<svg xmlns="http://www.w3.org/2000/svg" viewBox="0 0 512 512">
  <rect width="512" height="512" rx="80" fill="#0d0d0d"/>
  <rect x="156" y="156" width="200" height="200" rx="20" fill="#1a1a1a" stroke="#2a2a2a" stroke-width="4"/>
  <rect x="186" y="186" width="140" height="140" rx="10" fill="#e5001a"/>
  <!-- chip lines -->
  <line x1="200" y1="220" x2="312" y2="220" stroke="rgba(255,255,255,0.3)" stroke-width="4" stroke-linecap="round"/>
  <line x1="200" y1="256" x2="312" y2="256" stroke="rgba(255,255,255,0.3)" stroke-width="4" stroke-linecap="round"/>
  <line x1="200" y1="292" x2="312" y2="292" stroke="rgba(255,255,255,0.3)" stroke-width="4" stroke-linecap="round"/>
  <!-- pins top -->
  <rect x="210" y="136" width="16" height="22" rx="4" fill="#e5001a"/>
  <rect x="248" y="136" width="16" height="22" rx="4" fill="#444"/>
  <rect x="286" y="136" width="16" height="22" rx="4" fill="#444"/>
  <!-- pins bottom -->
  <rect x="210" y="374" width="16" height="22" rx="4" fill="#e5001a"/>
  <rect x="248" y="374" width="16" height="22" rx="4" fill="#444"/>
  <rect x="286" y="374" width="16" height="22" rx="4" fill="#444"/>
  <!-- pins left -->
  <rect x="136" y="210" width="22" height="16" rx="4" fill="#e5001a"/>
  <rect x="136" y="248" width="22" height="16" rx="4" fill="#444"/>
  <rect x="136" y="286" width="22" height="16" rx="4" fill="#444"/>
  <!-- pins right -->
  <rect x="354" y="210" width="22" height="16" rx="4" fill="#e5001a"/>
  <rect x="354" y="248" width="22" height="16" rx="4" fill="#444"/>
  <rect x="354" y="286" width="22" height="16" rx="4" fill="#444"/>
</svg>
